<svg width="344" height="344" viewBox="0 0 344 344" fill="none" xmlns="http://www.w3.org/2000/svg">
<path opacity="0.1" d="M124.97 3.81152V159.612" stroke="url(#paint0_linear_201_341)"/>
<g opacity="0.1">
<path d="M341.141 282.776H244.421" stroke="url(#paint1_linear_201_341)"/>
<path d="M341.141 282.776H244.421" stroke="#0078D7" stroke-opacity="0.5"/>
</g>
<path opacity="0.1" d="M111.014 168.427H3.33496" stroke="url(#paint2_linear_201_341)"/>
<path opacity="0.1" d="M341.141 225.601H3.33496" stroke="url(#paint3_linear_201_341)"/>
<path d="M179.146 53.3628H282.537V54.3157H179.146V53.3628Z" fill="url(#paint4_linear_201_341)"/>
<path d="M288.731 59.0803V106.249H287.778V59.0803H288.731Z" fill="#252628"/>
<path opacity="0.3" d="M108.532 54H84.2326C75.1543 54 67.7949 61.3594 67.7949 70.4377V94.7368C67.7949 103.815 75.1543 111.175 84.2326 111.175H108.532C117.61 111.175 124.969 103.815 124.969 94.7368V70.4377C124.969 61.3594 117.61 54 108.532 54Z" stroke="url(#paint5_linear_201_341)"/>
<path opacity="0.3" d="M108.462 225.573H84.1633C75.085 225.573 67.7256 232.933 67.7256 242.011V266.31C67.7256 275.388 75.085 282.748 84.1633 282.748H108.462C117.541 282.748 124.9 275.388 124.9 266.31V242.011C124.9 232.933 117.541 225.573 108.462 225.573Z" stroke="url(#paint6_linear_201_341)"/>
<path d="M288.255 59.5569V105.296" stroke="#0078D7" stroke-width="1.5" stroke-linecap="round" stroke-linejoin="round"/>
<path d="M179.623 111.014H282.537V111.967H179.623V111.014Z" fill="url(#paint7_linear_201_341)"/>
<path d="M214.505 95.7672H209.145L218.904 68.0461H225.103L234.876 95.7672H229.516L222.112 73.7312H221.895L214.505 95.7672ZM214.681 84.8983H229.299V88.9315H214.681V84.8983ZM242.864 96.187C241.546 96.187 240.36 95.9521 239.304 95.4828C238.257 95.0049 237.427 94.3007 236.814 93.3716C236.209 92.442 235.906 91.2962 235.906 89.9335C235.906 88.7605 236.123 87.7904 236.556 87.0233C236.979 86.2673 237.59 85.6331 238.329 85.1823C239.078 84.722 239.922 84.3747 240.861 84.1403C241.826 83.8933 242.807 83.7169 243.798 83.6124C245.016 83.4856 246.004 83.3732 246.762 83.2736C247.52 83.1655 248.071 83.003 248.413 82.7867C248.766 82.5608 248.941 82.2135 248.941 81.7442V81.6632C248.941 80.6436 248.639 79.8536 248.035 79.2943C247.43 78.7349 246.559 78.4552 245.422 78.4552C244.222 78.4552 243.27 78.7168 242.566 79.24C241.871 79.7636 241.402 80.3815 241.158 81.0948L236.584 80.4449C236.944 79.1814 237.54 78.1255 238.37 77.2774C239.2 76.4203 240.216 75.7795 241.416 75.3554C242.616 74.9223 243.942 74.7055 245.395 74.7055C246.397 74.7055 247.394 74.8232 248.386 75.0576C249.355 75.2821 250.276 75.6762 251.107 76.2216C251.928 76.7543 252.587 77.4804 253.083 78.4009C253.589 79.3214 253.841 80.4721 253.841 81.8524V95.7672H249.131V92.9113H248.968C248.671 93.4888 248.251 94.0301 247.71 94.5356C247.177 95.0316 246.505 95.4332 245.693 95.74C244.89 96.0378 243.947 96.187 242.864 96.187ZM244.136 92.5864C245.12 92.5864 245.973 92.3925 246.694 92.0042C247.416 91.6073 247.971 91.0837 248.36 90.4343C248.753 89.7957 248.96 89.0594 248.955 88.3093V85.8593C248.802 85.9856 248.54 86.1028 248.17 86.211C247.809 86.3191 247.403 86.4139 246.952 86.4954C246.5 86.5764 246.054 86.6488 245.612 86.7117C245.17 86.7751 244.786 86.8294 244.461 86.8742C243.73 86.9738 243.076 87.1358 242.498 87.3616C241.921 87.587 241.465 87.9029 241.131 88.3093C240.797 88.7062 240.631 89.2203 240.631 89.852C240.631 90.7544 240.96 91.4358 241.619 91.896C242.277 92.3563 243.117 92.5864 244.136 92.5864Z" fill="#222222"/>
<path d="M179.623 53.8393H283.014M282.538 111.49H179.623M174.382 59.5567V105.296M178.194 48.5983H170.094C169.715 48.5983 169.352 48.7489 169.084 49.0169C168.816 49.285 168.665 49.6486 168.665 50.0276V58.1274C168.665 58.5065 168.816 58.87 169.084 59.1381C169.352 59.4061 169.715 59.5567 170.094 59.5567H178.194C178.573 59.5567 178.937 59.4061 179.205 59.1381C179.473 58.87 179.623 58.5065 179.623 58.1274V50.0276C179.623 49.6486 179.473 49.285 179.205 49.0169C178.937 48.7489 178.573 48.5983 178.194 48.5983ZM178.194 105.773H170.094C169.715 105.773 169.352 105.923 169.084 106.191C168.816 106.46 168.665 106.823 168.665 107.202V115.302C168.665 115.681 168.816 116.045 169.084 116.313C169.352 116.581 169.715 116.731 170.094 116.731H178.194C178.573 116.731 178.937 116.581 179.205 116.313C179.473 116.045 179.623 115.681 179.623 115.302V107.202C179.623 106.823 179.473 106.46 179.205 106.191C178.937 105.923 178.573 105.773 178.194 105.773ZM292.543 48.1218H284.443C284.064 48.1218 283.701 48.2724 283.433 48.5405C283.165 48.8085 283.014 49.1721 283.014 49.5512V57.6509C283.014 58.03 283.165 58.3936 283.433 58.6616C283.701 58.9297 284.064 59.0803 284.443 59.0803H292.543C292.922 59.0803 293.286 58.9297 293.554 58.6616C293.822 58.3936 293.973 58.03 293.973 57.6509V49.5512C293.973 49.1721 293.822 48.8085 293.554 48.5405C293.286 48.2724 292.922 48.1218 292.543 48.1218ZM292.543 105.773H284.443C284.064 105.773 283.701 105.923 283.433 106.191C283.165 106.46 283.014 106.823 283.014 107.202V115.302C283.014 115.681 283.165 116.045 283.433 116.313C283.701 116.581 284.064 116.731 284.443 116.731H292.543C292.922 116.731 293.286 116.581 293.554 116.313C293.822 116.045 293.973 115.681 293.973 115.302V107.202C293.973 106.823 293.822 106.46 293.554 106.191C293.286 105.923 292.922 105.773 292.543 105.773Z" stroke="#1976D2" stroke-width="1.5" stroke-linecap="round" stroke-linejoin="round"/>
<mask id="mask0_201_341" style="mask-type:alpha" maskUnits="userSpaceOnUse" x="288" y="3" width="1" height="338">
<path opacity="0.1" fill-rule="evenodd" clip-rule="evenodd" d="M288.255 340.188V3.81152H288.731V340.188H288.255Z" fill="url(#paint8_linear_201_341)"/>
</mask>
<g mask="url(#mask0_201_341)">
<path d="M282.061 48.5982H293.019V0.476318H282.061V48.5982ZM282.061 361.629H293.019V116.731H282.061V361.629Z" fill="#424242"/>
</g>
<path opacity="0.3" d="M272.055 168.427H247.756C238.678 168.427 231.318 175.786 231.318 184.864V209.163C231.318 218.242 238.678 225.601 247.756 225.601H272.055C281.133 225.601 288.493 218.242 288.493 209.163V184.864C288.493 175.786 281.133 168.427 272.055 168.427Z" stroke="url(#paint9_linear_201_341)"/>
<path d="M300.204 183.958H266.853C259.748 183.958 253.988 189.717 253.988 196.822C253.988 203.927 259.748 209.686 266.853 209.686H300.204C307.309 209.686 313.069 203.927 313.069 196.822C313.069 189.717 307.309 183.958 300.204 183.958Z" fill="#0078D7"/>
<path d="M300.204 184.196H266.853C259.879 184.196 254.227 189.849 254.227 196.822C254.227 203.795 259.879 209.448 266.853 209.448H300.204C307.178 209.448 312.83 203.795 312.83 196.822C312.83 189.849 307.178 184.196 300.204 184.196Z" fill="#0078D7" stroke="url(#paint10_linear_201_341)" stroke-opacity="0.4"/>
<path d="M268.656 199.204V198.518H269.328V194.888H268.656V194.202H270.657C271.324 194.202 271.834 194.371 272.187 194.709C272.544 195.047 272.723 195.557 272.723 196.238V197.175C272.723 197.856 272.544 198.366 272.187 198.704C271.834 199.038 271.324 199.204 270.657 199.204H268.656ZM270.107 198.504H270.664C271.098 198.504 271.42 198.394 271.629 198.175C271.839 197.956 271.944 197.63 271.944 197.196V196.21C271.944 195.772 271.839 195.445 271.629 195.231C271.42 195.016 271.098 194.909 270.664 194.909H270.107V198.504ZM275.232 199.304C274.874 199.304 274.562 199.231 274.296 199.083C274.029 198.93 273.819 198.718 273.667 198.447C273.519 198.171 273.445 197.851 273.445 197.489V197.403C273.445 197.037 273.519 196.717 273.667 196.446C273.814 196.169 274.019 195.957 274.281 195.81C274.548 195.657 274.855 195.581 275.203 195.581C275.541 195.581 275.837 195.657 276.089 195.81C276.347 195.957 276.547 196.165 276.69 196.431C276.833 196.698 276.904 197.01 276.904 197.368V197.646H274.195C274.205 197.956 274.307 198.204 274.503 198.39C274.703 198.571 274.951 198.661 275.246 198.661C275.522 198.661 275.73 198.599 275.868 198.475C276.011 198.352 276.12 198.209 276.197 198.047L276.804 198.361C276.737 198.495 276.64 198.635 276.511 198.783C276.387 198.93 276.223 199.054 276.018 199.154C275.813 199.254 275.551 199.304 275.232 199.304ZM274.203 197.082H276.154C276.135 196.815 276.039 196.608 275.868 196.46C275.696 196.308 275.472 196.231 275.196 196.231C274.92 196.231 274.693 196.308 274.517 196.46C274.346 196.608 274.241 196.815 274.203 197.082ZM279.234 199.304C278.786 199.304 278.414 199.204 278.119 199.004C277.823 198.804 277.642 198.502 277.575 198.097L278.262 197.932C278.3 198.128 278.364 198.282 278.455 198.397C278.545 198.511 278.657 198.592 278.79 198.64C278.929 198.687 279.076 198.711 279.234 198.711C279.467 198.711 279.646 198.666 279.77 198.576C279.898 198.485 279.963 198.368 279.963 198.225C279.963 198.082 279.903 197.978 279.784 197.911C279.665 197.844 279.488 197.789 279.255 197.746L279.012 197.704C278.789 197.665 278.571 197.603 278.362 197.518C278.181 197.447 278.021 197.332 277.897 197.182C277.783 197.039 277.726 196.856 277.726 196.632C277.726 196.298 277.849 196.041 278.097 195.86C278.345 195.674 278.674 195.581 279.083 195.581C279.479 195.581 279.803 195.672 280.055 195.853C280.313 196.029 280.479 196.269 280.556 196.574L279.87 196.767C279.827 196.553 279.736 196.403 279.598 196.317C279.46 196.227 279.288 196.181 279.083 196.181C278.883 196.181 278.726 196.219 278.612 196.296C278.558 196.327 278.514 196.371 278.483 196.426C278.453 196.48 278.438 196.541 278.44 196.603C278.44 196.746 278.495 196.851 278.605 196.917C278.719 196.984 278.871 197.034 279.062 197.068L279.312 197.11C279.565 197.153 279.796 197.213 280.005 197.289C280.215 197.365 280.379 197.475 280.499 197.618C280.622 197.761 280.684 197.951 280.684 198.19C280.684 198.542 280.553 198.816 280.291 199.011C280.029 199.207 279.677 199.304 279.234 199.304ZM281.545 199.204V195.681H282.281V199.204H281.545ZM281.916 195.202C281.782 195.205 281.652 195.157 281.552 195.066C281.457 194.971 281.409 194.85 281.409 194.702C281.409 194.554 281.457 194.435 281.552 194.345C281.652 194.249 281.774 194.202 281.916 194.202C282.064 194.202 282.186 194.249 282.281 194.345C282.376 194.435 282.424 194.554 282.424 194.702C282.424 194.85 282.376 194.971 282.281 195.066C282.186 195.157 282.064 195.202 281.916 195.202ZM283.202 197.461V197.353C283.202 196.982 283.276 196.665 283.423 196.403C283.576 196.141 283.776 195.938 284.024 195.795C284.272 195.652 284.543 195.581 284.839 195.581C285.182 195.581 285.444 195.645 285.625 195.774C285.811 195.903 285.946 196.041 286.032 196.188H286.146V195.681H286.861V199.926C286.861 200.141 286.797 200.312 286.668 200.441C286.544 200.569 286.373 200.634 286.154 200.634H283.781V199.991H285.925C286.063 199.991 286.132 199.919 286.132 199.776V198.654H286.018C285.965 198.74 285.892 198.828 285.796 198.919C285.701 199.009 285.575 199.083 285.417 199.14C285.265 199.197 285.072 199.226 284.839 199.226C284.543 199.226 284.269 199.157 284.017 199.019C283.769 198.876 283.571 198.673 283.423 198.411C283.276 198.144 283.202 197.827 283.202 197.461ZM285.039 198.583C285.358 198.583 285.62 198.483 285.825 198.282C286.034 198.078 286.139 197.797 286.139 197.439V197.375C286.139 197.008 286.037 196.727 285.832 196.532C285.627 196.331 285.363 196.231 285.039 196.231C284.724 196.231 284.462 196.331 284.253 196.532C284.048 196.727 283.945 197.008 283.945 197.375V197.439C283.945 197.797 284.048 198.078 284.253 198.282C284.462 198.483 284.724 198.583 285.039 198.583ZM287.945 199.204V195.681H288.667V196.21H288.781C288.848 196.067 288.967 195.934 289.139 195.81C289.31 195.686 289.565 195.624 289.903 195.624C290.17 195.624 290.406 195.683 290.611 195.803C290.82 195.922 290.985 196.091 291.104 196.31C291.223 196.524 291.283 196.784 291.283 197.089V199.204H290.546V197.146C290.546 196.841 290.47 196.617 290.318 196.474C290.165 196.327 289.956 196.253 289.689 196.253C289.384 196.253 289.139 196.353 288.953 196.553C288.772 196.753 288.681 197.044 288.681 197.425V199.204H287.945ZM293.957 199.304C293.6 199.304 293.287 199.231 293.021 199.083C292.754 198.93 292.544 198.718 292.392 198.447C292.244 198.171 292.17 197.851 292.17 197.489V197.403C292.17 197.037 292.244 196.717 292.392 196.446C292.539 196.169 292.744 195.957 293.006 195.81C293.273 195.657 293.581 195.581 293.928 195.581C294.267 195.581 294.562 195.657 294.815 195.81C295.072 195.957 295.272 196.165 295.415 196.431C295.558 196.698 295.629 197.01 295.629 197.368V197.646H292.921C292.93 197.956 293.033 198.204 293.228 198.39C293.428 198.571 293.676 198.661 293.971 198.661C294.248 198.661 294.455 198.599 294.593 198.475C294.736 198.352 294.846 198.209 294.922 198.047L295.529 198.361C295.463 198.495 295.365 198.635 295.236 198.783C295.112 198.93 294.948 199.054 294.743 199.154C294.538 199.254 294.276 199.304 293.957 199.304ZM292.928 197.082H294.879C294.86 196.815 294.765 196.608 294.593 196.46C294.421 196.308 294.198 196.231 293.921 196.231C293.645 196.231 293.419 196.308 293.242 196.46C293.071 196.608 292.966 196.815 292.928 197.082ZM296.515 199.204V195.681H297.237V196.096H297.352C297.409 195.948 297.499 195.841 297.623 195.774C297.752 195.702 297.909 195.667 298.095 195.667H298.517V196.331H298.066C297.828 196.331 297.633 196.398 297.48 196.532C297.328 196.66 297.252 196.86 297.252 197.132V199.204H296.515Z" fill="white"/>
<path d="M250.022 181.154C249.987 180.997 249.994 180.833 250.04 180.678C250.087 180.524 250.172 180.384 250.287 180.271C250.403 180.158 250.545 180.077 250.701 180.034C250.856 179.991 251.02 179.989 251.177 180.027L258.178 181.72C258.66 181.836 258.712 182.501 258.254 182.691C255.66 183.765 253.606 185.895 252.598 188.515C252.413 188.996 251.71 188.957 251.601 188.453L250.022 181.154Z" fill="#51ABFF" stroke="#505050" stroke-linecap="round" stroke-linejoin="round"/>
<path d="M207.734 168.188H140.554C127.397 168.188 116.731 178.854 116.731 192.011V259.191C116.731 272.348 127.397 283.014 140.554 283.014H207.734C220.891 283.014 231.557 272.348 231.557 259.191V192.011C231.557 178.854 220.891 168.188 207.734 168.188Z" fill="#E7F4FF" fill-opacity="0.7"/>
<path d="M140.554 168.688H207.734C220.615 168.688 231.057 179.13 231.057 192.011V259.191C231.057 272.072 220.615 282.514 207.734 282.514H140.554C127.673 282.514 117.231 272.072 117.231 259.191V192.011C117.231 179.13 127.673 168.688 140.554 168.688Z" stroke="url(#paint11_linear_201_341)" stroke-opacity="0.4"/>
<path d="M207.734 168.427H140.554C127.529 168.427 116.97 178.986 116.97 192.011V259.191C116.97 272.217 127.529 282.776 140.554 282.776H207.734C220.76 282.776 231.319 272.217 231.319 259.191V192.011C231.319 178.986 220.76 168.427 207.734 168.427Z" fill="#E7F4FF" fill-opacity="0.7" stroke="url(#paint12_linear_201_341)" stroke-opacity="0.4"/>
<g filter="url(#filter0_d_201_341)">
<mask id="mask1_201_341" style="mask-type:luminance" maskUnits="userSpaceOnUse" x="188" y="198" width="24" height="28">
<path d="M200.752 198.98C207.749 206.101 211.631 215.709 211.544 225.691L194.23 225.54C194.277 220.149 192.181 214.961 188.402 211.116L200.752 198.98Z" fill="white"/>
</mask>
<g mask="url(#mask1_201_341)">
<path d="M200.752 198.98C207.749 206.101 211.631 215.709 211.544 225.691L194.23 225.54C194.277 220.15 192.181 214.961 188.402 211.116L200.752 198.98Z" stroke="url(#paint13_linear_201_341)" stroke-width="70"/>
</g>
<mask id="mask2_201_341" style="mask-type:luminance" maskUnits="userSpaceOnUse" x="188" y="225" width="24" height="28">
<path d="M211.544 225.691C211.457 235.673 207.408 245.212 200.288 252.21L188.152 239.86C190.056 237.989 191.573 235.762 192.616 233.305C193.659 230.848 194.207 228.209 194.23 225.54L211.544 225.691Z" fill="white"/>
</mask>
<g mask="url(#mask2_201_341)">
<path d="M211.544 225.691C211.457 235.673 207.408 245.212 200.288 252.21L188.152 239.86C190.056 237.989 191.573 235.762 192.616 233.305C193.659 230.848 194.207 228.209 194.23 225.54L211.544 225.691Z" stroke="url(#paint14_linear_201_341)" stroke-width="70"/>
</g>
<mask id="mask3_201_341" style="mask-type:luminance" maskUnits="userSpaceOnUse" x="173" y="239" width="28" height="25">
<path d="M200.288 252.21C193.167 259.206 183.559 263.088 173.577 263.001L173.728 245.687C179.119 245.734 184.307 243.638 188.152 239.86L200.288 252.21Z" fill="white"/>
</mask>
<g mask="url(#mask3_201_341)">
<path d="M200.288 252.21C193.167 259.206 183.559 263.088 173.577 263.001L173.728 245.687C179.119 245.734 184.307 243.638 188.152 239.86L200.288 252.21Z" stroke="url(#paint15_linear_201_341)" stroke-width="70"/>
</g>
<mask id="mask4_201_341" style="mask-type:luminance" maskUnits="userSpaceOnUse" x="147" y="239" width="27" height="25">
<path d="M173.577 263.001C163.595 262.914 154.056 258.865 147.059 251.745L159.408 239.609C161.279 241.513 163.507 243.03 165.964 244.073C168.421 245.116 171.059 245.664 173.728 245.688L173.577 263.001Z" fill="white"/>
</mask>
<g mask="url(#mask4_201_341)">
<path d="M173.577 263.001C163.595 262.914 154.056 258.865 147.059 251.745L159.408 239.609C161.279 241.513 163.507 243.03 165.964 244.073C168.421 245.116 171.059 245.664 173.728 245.688L173.577 263.001Z" stroke="url(#paint16_linear_201_341)" stroke-width="70"/>
</g>
<mask id="mask5_201_341" style="mask-type:luminance" maskUnits="userSpaceOnUse" x="136" y="225" width="24" height="27">
<path d="M147.059 251.745C140.062 244.625 136.18 235.017 136.267 225.034L153.581 225.185C153.534 230.576 155.63 235.764 159.408 239.609L147.059 251.745Z" fill="white"/>
</mask>
<g mask="url(#mask5_201_341)">
<path d="M147.059 251.745C140.062 244.625 136.18 235.017 136.267 225.034L153.581 225.185C153.534 230.576 155.63 235.764 159.408 239.609L147.059 251.745Z" stroke="url(#paint17_linear_201_341)" stroke-width="70"/>
</g>
<mask id="mask6_201_341" style="mask-type:luminance" maskUnits="userSpaceOnUse" x="136" y="198" width="24" height="28">
<path d="M136.267 225.035C136.354 215.052 140.403 205.513 147.523 198.516L159.659 210.866C157.755 212.737 156.238 214.964 155.195 217.421C154.152 219.878 153.604 222.517 153.58 225.186L136.267 225.035Z" fill="white"/>
</mask>
<g mask="url(#mask6_201_341)">
<path d="M136.267 225.035C136.354 215.052 140.403 205.513 147.523 198.516L159.659 210.866C157.755 212.737 156.238 214.964 155.195 217.421C154.152 219.878 153.604 222.517 153.58 225.186L136.267 225.035Z" stroke="url(#paint18_linear_201_341)" stroke-width="70"/>
</g>
<mask id="mask7_201_341" style="mask-type:luminance" maskUnits="userSpaceOnUse" x="147" y="187" width="28" height="24">
<path d="M147.523 198.516C154.644 191.519 164.252 187.637 174.234 187.724L174.083 205.038C168.692 204.991 163.504 207.087 159.659 210.866L147.523 198.516Z" fill="white"/>
</mask>
<g mask="url(#mask7_201_341)">
<path d="M147.523 198.516C154.644 191.519 164.252 187.637 174.234 187.724L174.083 205.038C168.692 204.991 163.504 207.087 159.659 210.866L147.523 198.516Z" stroke="url(#paint19_linear_201_341)" stroke-width="70"/>
</g>
<mask id="mask8_201_341" style="mask-type:luminance" maskUnits="userSpaceOnUse" x="174" y="187" width="27" height="25">
<path d="M174.234 187.724C184.216 187.811 193.755 191.86 200.753 198.981L188.403 211.116C186.532 209.213 184.305 207.696 181.848 206.653C179.39 205.61 176.752 205.061 174.083 205.038L174.234 187.724Z" fill="white"/>
</mask>
<g mask="url(#mask8_201_341)">
<path d="M174.234 187.724C184.216 187.811 193.755 191.86 200.753 198.981L188.403 211.116C186.532 209.213 184.305 207.696 181.848 206.653C179.39 205.61 176.752 205.061 174.083 205.038L174.234 187.724Z" stroke="url(#paint20_linear_201_341)" stroke-width="70"/>
</g>
</g>
<mask id="mask9_201_341" style="mask-type:alpha" maskUnits="userSpaceOnUse" x="173" y="3" width="2" height="157">
<path opacity="0.1" d="M174.145 3.81152V159.612" stroke="url(#paint21_linear_201_341)"/>
</mask>
<g mask="url(#mask9_201_341)">
<path d="M168.212 0.5H181.029V48.0983H168.212V0.5ZM168.212 117.231H181.029V167.688H168.212V117.231Z" fill="#424242" stroke="url(#paint22_linear_201_341)"/>
</g>
<mask id="mask10_201_341" style="mask-type:alpha" maskUnits="userSpaceOnUse" x="230" y="3" width="2" height="157">
<path opacity="0.1" d="M231.318 3.81152V159.612" stroke="url(#paint23_linear_201_341)"/>
</mask>
<g mask="url(#mask10_201_341)">
<path d="M225.362 0H237.274V53.3629H225.362V0ZM225.362 111.967H237.274V165.33H225.362V111.967Z" fill="#424242"/>
</g>
<mask id="mask11_201_341" style="mask-type:alpha" maskUnits="userSpaceOnUse" x="3" y="53" width="339" height="2">
<path opacity="0.1" d="M341.141 54.0776H3.33496" stroke="url(#paint24_linear_201_341)"/>
</mask>
<g mask="url(#mask11_201_341)">
<path d="M-5.69434 49.0984H168.164V61.4391H-5.69434V49.0984ZM294.472 49.0984H341.594V61.4391H294.472V49.0984Z" fill="#424242" stroke="url(#paint25_linear_201_341)"/>
</g>
<mask id="mask12_201_341" style="mask-type:alpha" maskUnits="userSpaceOnUse" x="3" y="110" width="339" height="2">
<path opacity="0.1" d="M341.141 111.252H3.33496" stroke="url(#paint26_linear_201_341)"/>
</mask>
<g mask="url(#mask12_201_341)">
<path d="M-4.74121 106.273H168.165V116.231H-4.74121V106.273ZM294.472 106.273H349.694V116.231H294.472V106.273Z" fill="#424242" stroke="url(#paint27_linear_201_341)"/>
</g>
<path d="M76.5402 82H59.8643C52.7595 82 47 87.7595 47 94.8643V213.025C47 220.13 52.7595 225.889 59.8643 225.889H76.5402C83.6449 225.889 89.4044 220.13 89.4044 213.025V94.8643C89.4044 87.7595 83.6449 82 76.5402 82Z" fill="#E7F4FF" fill-opacity="0.7"/>
<path d="M76.5402 82.2383H59.8643C52.8912 82.2383 47.2383 87.8912 47.2383 94.8643V213.025C47.2383 219.998 52.8912 225.651 59.8643 225.651H76.5402C83.5134 225.651 89.1663 219.998 89.1663 213.025V94.8643C89.1663 87.8912 83.5134 82.2383 76.5402 82.2383Z" stroke="url(#paint28_linear_201_341)" stroke-opacity="0.4"/>
<path d="M75.1111 122.499H61.294C56.5575 122.499 52.7178 126.338 52.7178 131.075V144.415C52.7178 149.152 56.5575 152.992 61.294 152.992H75.1111C79.8476 152.992 83.6873 149.152 83.6873 144.415V131.075C83.6873 126.338 79.8476 122.499 75.1111 122.499Z" fill="#0078D7"/>
<path d="M67.1586 107.108C66.9831 106.932 66.8845 106.694 66.8845 106.446C66.8845 106.198 66.9831 105.96 67.1586 105.785C67.3341 105.609 67.5721 105.511 67.8202 105.511C68.0684 105.511 68.3064 105.609 68.4819 105.785C68.6574 105.96 68.756 106.198 68.756 106.446C68.756 106.694 68.6574 106.932 68.4819 107.108C68.3064 107.283 68.0684 107.382 67.8202 107.382C67.5721 107.382 67.3341 107.283 67.1586 107.108ZM67.1586 107.108L63.7656 110.501M68.1318 101.145L73.1213 106.134" stroke="#0078D7" stroke-linecap="round" stroke-linejoin="round"/>
<path d="M71.8534 105.01L70.6061 109.376L63.7451 110.624L64.9925 103.763L69.3582 102.515" stroke="#0078D7" stroke-linecap="round" stroke-linejoin="round"/>
<path d="M63.7617 199.407H73.1183M66.8811 199.407V206.268M72.1826 196.912H64.6975C64.5746 196.912 64.4529 196.936 64.3394 196.983C64.2259 197.03 64.1227 197.099 64.0358 197.186C63.9489 197.273 63.88 197.376 63.833 197.489C63.7859 197.603 63.7617 197.725 63.7617 197.847V205.333C63.7617 205.85 64.1805 206.269 64.6975 206.269H72.1826C72.4308 206.269 72.6688 206.17 72.8442 205.995C73.0197 205.819 73.1183 205.581 73.1183 205.333V197.847C73.1183 197.725 73.0941 197.603 73.0471 197.489C73.0001 197.376 72.9311 197.273 72.8442 197.186C72.7573 197.099 72.6542 197.03 72.5406 196.983C72.4271 196.936 72.3054 196.912 72.1826 196.912Z" stroke="#0078D7" stroke-linecap="round" stroke-linejoin="round"/>
<path d="M68.4408 133.067V142.423M66.6393 142.423H70.2375M72.3968 134.507L71.6768 133.067H65.1999L64.4805 134.507" stroke="white" stroke-linecap="round" stroke-linejoin="round"/>
<path d="M69.7174 170.093L72.7619 167.074C72.8753 166.96 72.9653 166.826 73.0266 166.678C73.088 166.53 73.1196 166.371 73.1196 166.21C73.1196 166.05 73.0881 165.891 73.0268 165.743C72.9654 165.595 72.8755 165.461 72.7622 165.347C72.6488 165.234 72.5143 165.144 72.3662 165.083C72.2181 165.021 72.0593 164.99 71.899 164.99C71.7387 164.989 71.58 165.021 71.4318 165.082C71.2837 165.144 71.1491 165.234 71.0357 165.347L68.016 168.392M64.7747 170.306C63.9061 171.156 63.7617 174.346 63.7617 174.346C63.7617 174.346 66.9459 174.063 67.8154 173.283C68.013 173.089 68.17 172.857 68.2772 172.601C68.3843 172.346 68.4395 172.071 68.4395 171.794C68.4395 171.517 68.3843 171.243 68.2772 170.987C68.17 170.732 68.013 170.5 67.8154 170.306C67.4275 169.91 66.9002 169.681 66.3458 169.667C65.7915 169.654 65.2539 169.858 64.8476 170.235C64.8223 170.258 64.7985 170.282 64.7747 170.306Z" stroke="#0078D7" stroke-linecap="round" stroke-linejoin="round"/>
<defs>
<filter id="filter0_d_201_341" x="109.266" y="169.723" width="129.279" height="129.28" filterUnits="userSpaceOnUse" color-interpolation-filters="sRGB">
<feFlood flood-opacity="0" result="BackgroundImageFix"/>
<feColorMatrix in="SourceAlpha" type="matrix" values="0 0 0 0 0 0 0 0 0 0 0 0 0 0 0 0 0 0 127 0" result="hardAlpha"/>
<feOffset dy="9"/>
<feGaussianBlur stdDeviation="13.5"/>
<feComposite in2="hardAlpha" operator="out"/>
<feColorMatrix type="matrix" values="0 0 0 0 0 0 0 0 0 0 0 0 0 0 0 0 0 0 0.13 0"/>
<feBlend mode="normal" in2="BackgroundImageFix" result="effect1_dropShadow_201_341"/>
<feBlend mode="normal" in="SourceGraphic" in2="effect1_dropShadow_201_341" result="shape"/>
</filter>
<linearGradient id="paint0_linear_201_341" x1="-nan" y1="-nan" x2="-nan" y2="-nan" gradientUnits="userSpaceOnUse">
<stop stop-color="#F3F4FA" stop-opacity="0"/>
<stop offset="0.295" stop-color="#0078D7"/>
<stop offset="0.695" stop-color="#0078D7"/>
<stop offset="1" stop-color="#F3F4FA" stop-opacity="0.1"/>
</linearGradient>
<linearGradient id="paint1_linear_201_341" x1="-nan" y1="-nan" x2="-nan" y2="-nan" gradientUnits="userSpaceOnUse">
<stop stop-color="#F3F4FA" stop-opacity="0"/>
<stop offset="0.295" stop-color="#F3F4FA"/>
<stop offset="0.695" stop-color="#F3F4FA"/>
<stop offset="1" stop-color="#F3F4FA" stop-opacity="0.1"/>
</linearGradient>
<linearGradient id="paint2_linear_201_341" x1="-nan" y1="-nan" x2="-nan" y2="-nan" gradientUnits="userSpaceOnUse">
<stop stop-color="#F3F4FA" stop-opacity="0"/>
<stop offset="0.44" stop-color="#F3F4FA"/>
<stop offset="0.59" stop-color="#F3F4FA"/>
<stop offset="1" stop-color="#F3F4FA" stop-opacity="0.1"/>
</linearGradient>
<linearGradient id="paint3_linear_201_341" x1="-nan" y1="-nan" x2="-nan" y2="-nan" gradientUnits="userSpaceOnUse">
<stop stop-color="#F3F4FA" stop-opacity="0"/>
<stop offset="0.161" stop-color="#F3F4FA"/>
<stop offset="0.836" stop-color="#F3F4FA"/>
<stop offset="1" stop-color="#F3F4FA" stop-opacity="0.1"/>
</linearGradient>
<linearGradient id="paint4_linear_201_341" x1="179.146" y1="53.8392" x2="282.537" y2="53.8392" gradientUnits="userSpaceOnUse">
<stop stop-color="#27292A"/>
<stop offset="1" stop-color="#242527"/>
</linearGradient>
<linearGradient id="paint5_linear_201_341" x1="96.3822" y1="54" x2="96.3822" y2="111.175" gradientUnits="userSpaceOnUse">
<stop stop-color="#0078D7"/>
<stop offset="0.58" stop-color="#003F71" stop-opacity="0"/>
<stop offset="1" stop-color="#003F71" stop-opacity="0"/>
</linearGradient>
<linearGradient id="paint6_linear_201_341" x1="74" y1="273.5" x2="125.138" y2="251.302" gradientUnits="userSpaceOnUse">
<stop stop-color="#0078D7"/>
<stop offset="0.71" stop-color="white" stop-opacity="0.05"/>
<stop offset="1" stop-color="white" stop-opacity="0"/>
</linearGradient>
<linearGradient id="paint7_linear_201_341" x1="179.623" y1="111.49" x2="282.537" y2="111.49" gradientUnits="userSpaceOnUse">
<stop stop-color="#292A2D"/>
<stop offset="1" stop-color="#262728"/>
</linearGradient>
<linearGradient id="paint8_linear_201_341" x1="287.776" y1="340.188" x2="287.776" y2="3.81152" gradientUnits="userSpaceOnUse">
<stop stop-color="#F3F4FA" stop-opacity="0"/>
<stop offset="0.161" stop-color="#F3F4FA"/>
<stop offset="0.836" stop-color="#F3F4FA"/>
<stop offset="1" stop-color="#F3F4FA" stop-opacity="0.1"/>
</linearGradient>
<linearGradient id="paint9_linear_201_341" x1="288.731" y1="193.44" x2="231.08" y2="193.44" gradientUnits="userSpaceOnUse">
<stop stop-color="#0078D7"/>
<stop offset="0.73" stop-color="white" stop-opacity="0.05"/>
<stop offset="1" stop-color="white" stop-opacity="0"/>
</linearGradient>
<linearGradient id="paint10_linear_201_341" x1="283.529" y1="183.958" x2="283.529" y2="209.686" gradientUnits="userSpaceOnUse">
<stop stop-color="white"/>
<stop offset="1" stop-color="white" stop-opacity="0"/>
</linearGradient>
<linearGradient id="paint11_linear_201_341" x1="174.144" y1="167.949" x2="174.144" y2="283.253" gradientUnits="userSpaceOnUse">
<stop stop-color="white" stop-opacity="0"/>
<stop offset="1" stop-color="#0078D7"/>
</linearGradient>
<linearGradient id="paint12_linear_201_341" x1="174.144" y1="168.189" x2="174.144" y2="283.014" gradientUnits="userSpaceOnUse">
<stop stop-color="white" stop-opacity="0"/>
<stop offset="1" stop-color="#0078D7"/>
</linearGradient>
<linearGradient id="paint13_linear_201_341" x1="208.448" y1="210.831" x2="192.963" y2="217.739" gradientUnits="userSpaceOnUse">
<stop stop-color="#F04249"/>
<stop offset="1" stop-color="#F04249"/>
</linearGradient>
<linearGradient id="paint14_linear_201_341" x1="208.449" y1="239.895" x2="192.726" y2="233.224" gradientUnits="userSpaceOnUse">
<stop stop-color="#F3683F"/>
<stop offset="1" stop-color="#F3683F"/>
</linearGradient>
<linearGradient id="paint15_linear_201_341" x1="188.437" y1="259.906" x2="181.529" y2="244.183" gradientUnits="userSpaceOnUse">
<stop stop-color="#F89E30"/>
<stop offset="1" stop-color="#F89E30"/>
</linearGradient>
<linearGradient id="paint16_linear_201_341" x1="159.85" y1="260.382" x2="166.282" y2="244.183" gradientUnits="userSpaceOnUse">
<stop stop-color="#FFF214"/>
</linearGradient>
<linearGradient id="paint17_linear_201_341" x1="154.847" y1="233.224" x2="138.886" y2="239.895" gradientUnits="userSpaceOnUse">
<stop stop-color="#06B75C"/>
<stop offset="1" stop-color="#06B75C"/>
</linearGradient>
<linearGradient id="paint18_linear_201_341" x1="155.085" y1="217.263" x2="138.886" y2="210.831" gradientUnits="userSpaceOnUse">
<stop stop-color="#058DE6"/>
<stop offset="1" stop-color="#058DE6"/>
</linearGradient>
<linearGradient id="paint19_linear_201_341" x1="160.565" y1="190.105" x2="166.521" y2="206.305" gradientUnits="userSpaceOnUse">
<stop stop-color="#7333A3"/>
<stop offset="1" stop-color="#7333A3"/>
</linearGradient>
<linearGradient id="paint20_linear_201_341" x1="188.438" y1="190.582" x2="182.005" y2="206.781" gradientUnits="userSpaceOnUse">
<stop stop-color="#BF2674"/>
<stop offset="1" stop-color="#BF2674"/>
</linearGradient>
<linearGradient id="paint21_linear_201_341" x1="-nan" y1="-nan" x2="-nan" y2="-nan" gradientUnits="userSpaceOnUse">
<stop stop-color="#F3F4FA" stop-opacity="0"/>
<stop offset="0.295" stop-color="#0078D7"/>
<stop offset="0.695" stop-color="#F3F4FA"/>
<stop offset="1" stop-color="#F3F4FA" stop-opacity="0.1"/>
</linearGradient>
<linearGradient id="paint22_linear_201_341" x1="-nan" y1="-nan" x2="-nan" y2="-nan" gradientUnits="userSpaceOnUse">
<stop stop-color="#F3F4FA" stop-opacity="0"/>
<stop offset="0.295" stop-color="#0078D7"/>
<stop offset="0.695" stop-color="#F3F4FA"/>
<stop offset="1" stop-color="#F3F4FA" stop-opacity="0.1"/>
</linearGradient>
<linearGradient id="paint23_linear_201_341" x1="-nan" y1="-nan" x2="-nan" y2="-nan" gradientUnits="userSpaceOnUse">
<stop stop-color="#F3F4FA" stop-opacity="0"/>
<stop offset="0.295" stop-color="#F3F4FA"/>
<stop offset="0.695" stop-color="#F3F4FA"/>
<stop offset="1" stop-color="#F3F4FA" stop-opacity="0.1"/>
</linearGradient>
<linearGradient id="paint24_linear_201_341" x1="-nan" y1="-nan" x2="-nan" y2="-nan" gradientUnits="userSpaceOnUse">
<stop stop-color="#F3F4FA" stop-opacity="0"/>
<stop offset="0.161" stop-color="#0078D7"/>
<stop offset="0.836" stop-color="#0078D7"/>
<stop offset="1" stop-color="#F3F4FA" stop-opacity="0.1"/>
</linearGradient>
<linearGradient id="paint25_linear_201_341" x1="-nan" y1="-nan" x2="-nan" y2="-nan" gradientUnits="userSpaceOnUse">
<stop stop-color="#F3F4FA" stop-opacity="0"/>
<stop offset="0.161" stop-color="#0078D7"/>
<stop offset="0.836" stop-color="#0078D7"/>
<stop offset="1" stop-color="#F3F4FA" stop-opacity="0.1"/>
</linearGradient>
<linearGradient id="paint26_linear_201_341" x1="-nan" y1="-nan" x2="-nan" y2="-nan" gradientUnits="userSpaceOnUse">
<stop stop-color="#F3F4FA" stop-opacity="0"/>
<stop offset="0.161" stop-color="#0078D7"/>
<stop offset="0.836" stop-color="#0078D7"/>
<stop offset="1" stop-color="#F3F4FA" stop-opacity="0.1"/>
</linearGradient>
<linearGradient id="paint27_linear_201_341" x1="-nan" y1="-nan" x2="-nan" y2="-nan" gradientUnits="userSpaceOnUse">
<stop stop-color="#F3F4FA" stop-opacity="0"/>
<stop offset="0.161" stop-color="#0078D7"/>
<stop offset="0.836" stop-color="#0078D7"/>
<stop offset="1" stop-color="#F3F4FA" stop-opacity="0.1"/>
</linearGradient>
<linearGradient id="paint28_linear_201_341" x1="68.2023" y1="82.0001" x2="68.2023" y2="225.889" gradientUnits="userSpaceOnUse">
<stop stop-color="white"/>
<stop offset="1" stop-color="#0078D7"/>
</linearGradient>
</defs>
</svg>
