<svg width="48" height="55" viewBox="0 0 48 55" fill="none" xmlns="http://www.w3.org/2000/svg">
<rect x="1.5" y="1.5" width="30.2389" height="52" rx="5.5" stroke="#222222" stroke-width="3"/>
<rect x="18.3584" y="12.3807" width="25.815" height="25.5761" rx="5.5" stroke="#222222" stroke-width="3"/>
<path d="M14 4.96179H19.9782" stroke="#222222" stroke-width="1.5" stroke-linecap="round"/>
<path d="M13.6299 49.4404H19.6081" stroke="#222222" stroke-width="1.5" stroke-linecap="round"/>
<path d="M2 45L31 45" stroke="#222222" stroke-width="3" stroke-linecap="round"/>
<path d="M8.29395 4.96191H8.89177" stroke="#222222" stroke-width="1.5" stroke-linecap="round"/>
<path d="M41.9539 17.4074L38.0691 13.5226ZM26.9004 28.5762L30.1873 28.211C30.5888 28.1663 30.7896 28.1441 30.9773 28.0833C31.1438 28.0294 31.3023 27.9533 31.4484 27.8569C31.613 27.7483 31.7559 27.6055 32.0416 27.3197L44.8674 14.4938C45.9402 13.4211 45.9402 11.6818 44.8674 10.609C43.7947 9.53626 42.0554 9.53625 40.9827 10.609L28.1568 23.4349C27.8711 23.7207 27.7283 23.8635 27.6197 24.0282C27.5233 24.1743 27.4472 24.3327 27.3933 24.4993C27.3325 24.6869 27.3102 24.8878 27.2656 25.2894L26.9004 28.5762Z" fill="#F3F1F0"/>
<path d="M41.9539 17.4074L38.0691 13.5226M26.9004 28.5762L30.1873 28.211C30.5888 28.1663 30.7896 28.1441 30.9773 28.0833C31.1438 28.0294 31.3023 27.9533 31.4484 27.8569C31.613 27.7483 31.7559 27.6055 32.0416 27.3197L44.8674 14.4938C45.9402 13.4211 45.9402 11.6818 44.8674 10.609C43.7947 9.53626 42.0554 9.53625 40.9827 10.609L28.1568 23.4349C27.8711 23.7207 27.7283 23.8635 27.6197 24.0282C27.5233 24.1743 27.4472 24.3327 27.3933 24.4993C27.3325 24.6869 27.3102 24.8878 27.2656 25.2894L26.9004 28.5762Z" stroke="#222222" stroke-width="3" stroke-linecap="round" stroke-linejoin="round"/>
</svg>
