<svg width="179" height="271" viewBox="0 0 179 271" fill="none" xmlns="http://www.w3.org/2000/svg">
<g clip-path="url(#clip0_400_679)">
<path d="M47.6998 105.29C47.3407 103.606 46.6617 102.008 45.6998 100.58L47.3898 98.58L43.8298 95L41.8298 96.68C40.401 95.7377 38.806 95.076 37.1298 94.73L36.8898 92.11H31.7898L31.5498 94.73C29.8711 95.0778 28.2731 95.7393 26.8398 96.68L24.8398 95L21.2398 98.6L22.9198 100.6C21.9616 102.03 21.2829 103.628 20.9198 105.31L18.2998 105.55V110.64L20.9198 110.89C21.283 112.569 21.9616 114.164 22.9198 115.59L21.2398 117.59L24.8398 121.19L26.8398 119.5C28.2674 120.462 29.8663 121.141 31.5498 121.5L31.7898 124.12H36.8898L37.1298 121.5C38.8107 121.143 40.4067 120.463 41.8298 119.5L43.8298 121.19L47.4298 117.59L45.7398 115.59C46.7017 114.166 47.3807 112.57 47.7398 110.89L50.3598 110.64V105.55L47.6998 105.29ZM41.1898 108.08C41.1898 109.443 40.7857 110.775 40.0286 111.908C39.2715 113.041 38.1955 113.924 36.9365 114.446C35.6775 114.967 34.2922 115.103 32.9556 114.838C31.6191 114.572 30.3914 113.916 29.4278 112.952C28.4643 111.988 27.808 110.761 27.5422 109.424C27.2763 108.088 27.4128 106.702 27.9343 105.443C28.4558 104.184 29.3389 103.108 30.4719 102.351C31.605 101.594 32.9371 101.19 34.2998 101.19C35.205 101.189 36.1015 101.366 36.9381 101.712C37.7746 102.058 38.5346 102.565 39.1747 103.205C39.8148 103.845 40.3222 104.605 40.668 105.442C41.0138 106.278 41.1911 107.175 41.1898 108.08Z" fill="#EBEBEB"/>
<path d="M57.7999 216C57.4521 214.324 56.7904 212.73 55.8499 211.3L57.5299 209.3L53.9299 205.7L51.9299 207.39C50.5001 206.432 48.902 205.754 47.2199 205.39L46.9999 202.81H41.8599L41.6099 205.43C39.9309 205.794 38.3361 206.472 36.9099 207.43L34.9099 205.74L31.3099 209.34L32.9999 211.34C32.0421 212.766 31.3635 214.361 30.9999 216.04L28.3799 216.29V221.38L30.9999 221.62C31.3635 223.302 32.0421 224.9 32.9999 226.33L31.3099 228.33L34.9099 231.93L36.9099 230.25C38.3396 231.191 39.9343 231.852 41.6099 232.2L41.8599 234.82H46.9999L47.2399 232.2C48.9186 231.852 50.5166 231.191 51.9499 230.25L53.9499 231.93L57.5499 228.33L55.8699 226.33C56.8105 224.897 57.4721 223.299 57.8199 221.62L60.4399 221.38V216.29L57.7999 216ZM51.2899 218.79C51.2899 220.153 50.8858 221.485 50.1287 222.618C49.3716 223.751 48.2956 224.634 47.0366 225.156C45.7776 225.677 44.3922 225.813 43.0557 225.548C41.7192 225.282 40.4915 224.626 39.5279 223.662C38.5643 222.698 37.9081 221.471 37.6423 220.134C37.3764 218.798 37.5129 217.412 38.0344 216.153C38.5558 214.894 39.4389 213.818 40.572 213.061C41.7051 212.304 43.0372 211.9 44.3999 211.9C45.3084 211.899 46.2083 212.077 47.0474 212.426C47.8866 212.774 48.6484 213.285 49.289 213.929C49.9296 214.574 50.4362 215.338 50.7797 216.179C51.1231 217.021 51.2965 217.921 51.2899 218.83V218.79Z" fill="#EBEBEB"/>
<path d="M166.67 138.35C168.43 137.331 169.804 135.761 170.58 133.882C171.356 132.003 171.491 129.92 170.964 127.957C170.436 125.993 169.276 124.259 167.663 123.021C166.049 121.784 164.073 121.114 162.04 121.114C160.007 121.114 158.031 121.784 156.417 123.021C154.804 124.259 153.644 125.993 153.117 127.957C152.589 129.92 152.724 132.003 153.5 133.882C154.276 135.761 155.651 137.331 157.41 138.35C146.07 141.07 145.41 153.62 145.41 153.62L178.75 153.43C178.75 153.43 178 141.05 166.67 138.35Z" fill="#EBEBEB"/>
<path d="M60.46 32.19C60.46 32.19 95.8 -3.81001 131.13 32.55C131.13 32.55 98 76.12 60.46 32.19Z" fill="#F5F5F5"/>
<path d="M95.8 46.84C102.869 46.84 108.6 41.1092 108.6 34.04C108.6 26.9707 102.869 21.24 95.8 21.24C88.7308 21.24 83 26.9707 83 34.04C83 41.1092 88.7308 46.84 95.8 46.84Z" fill="#EBEBEB"/>
<path d="M95.7995 39.15C98.6216 39.15 100.909 36.8622 100.909 34.04C100.909 31.2178 98.6216 28.93 95.7995 28.93C92.9773 28.93 90.6895 31.2178 90.6895 34.04C90.6895 36.8622 92.9773 39.15 95.7995 39.15Z" fill="#E0E0E0"/>
<path d="M127.56 119.75H17.81C7.97381 119.75 0 127.724 0 137.56V196.33C0 206.166 7.97381 214.14 17.81 214.14H127.56C137.396 214.14 145.37 206.166 145.37 196.33V137.56C145.37 127.724 137.396 119.75 127.56 119.75Z" fill="#263238"/>
<path d="M35 170.85V143.92H51.52V170.36C51.52 177.84 54.39 180.64 59.01 180.64C63.63 180.64 66.49 177.84 66.49 170.36V143.92H82.72V170.85C82.72 185.53 73.9 194 58.87 194C43.84 194 35 185.53 35 170.85Z" fill="white"/>
<path d="M90.2695 143.92H106.77V192.92H90.2695V143.92Z" fill="white"/>
<path d="M104.99 225.21H75.7595C71.3468 225.21 67.7695 228.787 67.7695 233.2V262.43C67.7695 266.843 71.3468 270.42 75.7595 270.42H104.99C109.402 270.42 112.98 266.843 112.98 262.43V233.2C112.98 228.787 109.402 225.21 104.99 225.21Z" fill="#0078D7"/>
<path opacity="0.8" d="M102.619 247.81L93.3493 253.17L84.0693 258.52V247.81V237.1L93.3493 242.46L102.619 247.81Z" fill="white"/>
<path d="M175.35 192.24H128.67C126.781 192.24 125.25 193.771 125.25 195.66V235.49C125.25 237.379 126.781 238.91 128.67 238.91H175.35C177.239 238.91 178.77 237.379 178.77 235.49V195.66C178.77 193.771 177.239 192.24 175.35 192.24Z" fill="#0078D7"/>
<path opacity="0.8" d="M175.35 192.24H128.67C126.781 192.24 125.25 193.771 125.25 195.66V235.49C125.25 237.379 126.781 238.91 128.67 238.91H175.35C177.239 238.91 178.77 237.379 178.77 235.49V195.66C178.77 193.771 177.239 192.24 175.35 192.24Z" fill="white"/>
<path d="M125.25 231.4L141.25 215.67L155 222.8L167.86 208.8L178.81 218.13V237.13C178.774 237.627 178.544 238.09 178.17 238.419C177.796 238.748 177.308 238.918 176.81 238.89H128.67C124.24 238.91 125 232.59 125.25 231.4Z" fill="#0078D7"/>
<path d="M158.45 205.49C158.422 206.601 158.067 207.679 157.43 208.59C156.793 209.5 155.901 210.203 154.867 210.609C153.832 211.015 152.701 211.107 151.614 210.874C150.527 210.64 149.534 210.091 148.758 209.296C147.981 208.5 147.457 207.494 147.25 206.402C147.043 205.31 147.163 204.181 147.594 203.157C148.026 202.132 148.75 201.258 149.676 200.643C150.602 200.028 151.688 199.7 152.8 199.7C153.551 199.709 154.293 199.866 154.983 200.162C155.674 200.458 156.299 200.887 156.824 201.425C157.349 201.962 157.762 202.598 158.041 203.296C158.32 203.993 158.459 204.739 158.45 205.49Z" fill="#0078D7"/>
<path d="M162.42 57.26H112.45C108.335 57.26 105 60.5955 105 64.71V95.11C105 99.2245 108.335 102.56 112.45 102.56H162.42C166.535 102.56 169.87 99.2245 169.87 95.11V64.71C169.87 60.5955 166.535 57.26 162.42 57.26Z" fill="#0078D7"/>
<path opacity="0.4" d="M162.42 57.26H112.45C108.335 57.26 105 60.5955 105 64.71V95.11C105 99.2245 108.335 102.56 112.45 102.56H162.42C166.535 102.56 169.87 99.2245 169.87 95.11V64.71C169.87 60.5955 166.535 57.26 162.42 57.26Z" fill="white"/>
<path d="M130.38 76L120.27 79.9L130.38 83.81V86.17L117.62 81.17V78.68L130.38 73.68V76Z" fill="white"/>
<path d="M140.89 65.89H143.37L134 92.72H131.52L140.89 65.89Z" fill="white"/>
<path d="M157 78.68V81.13L144.24 86.13V83.81L154.38 79.9L144.23 76V73.64L157 78.68Z" fill="white"/>
<path d="M90.8701 102.06V108.06H84.8701" stroke="#0078D7" stroke-width="0.75" stroke-miterlimit="10"/>
<path d="M78.2596 108.06H68.3496" stroke="#0078D7" stroke-width="0.75" stroke-miterlimit="10" stroke-dasharray="6.61 6.61"/>
<path d="M65.04 108.06H59.04V102.06" stroke="#0078D7" stroke-width="0.75" stroke-miterlimit="10"/>
<path d="M59.04 95.45V85.54" stroke="#0078D7" stroke-width="0.75" stroke-miterlimit="10" stroke-dasharray="6.61 6.61"/>
<path d="M59.04 82.23V76.23H65.04" stroke="#0078D7" stroke-width="0.75" stroke-miterlimit="10"/>
<path d="M71.6504 76.23H81.5704" stroke="#0078D7" stroke-width="0.75" stroke-miterlimit="10" stroke-dasharray="6.61 6.61"/>
<path d="M84.8701 76.23H90.8701V82.23" stroke="#0078D7" stroke-width="0.75" stroke-miterlimit="10"/>
<path d="M90.8701 88.84V98.75" stroke="#0078D7" stroke-width="0.75" stroke-miterlimit="10" stroke-dasharray="6.61 6.61"/>
<path d="M66.1904 100.59C66.4911 100.577 66.7845 100.493 67.0468 100.345C67.3091 100.197 67.533 99.9901 67.7004 99.74C68.13 99.0529 68.4853 98.3222 68.7604 97.56L74.5404 83.32H75.2604L81.0704 97C81.4646 98.0424 81.9533 99.0466 82.5304 100C82.6824 100.218 82.889 100.391 83.1295 100.504C83.3701 100.616 83.636 100.663 83.9004 100.64V101.31H75.4804V100.64C76.0443 100.65 76.6066 100.579 77.1504 100.43C77.4104 100.32 77.5504 100.04 77.5504 99.59C77.5251 99.2725 77.4578 98.9598 77.3504 98.66C77.2604 98.42 77.1404 98.12 77.0004 97.77L76.3404 96.2H70.5004L69.7604 98.2C69.5755 98.6672 69.4609 99.1592 69.4204 99.66C69.4204 100.033 69.6704 100.303 70.1704 100.47C70.6035 100.588 71.052 100.638 71.5004 100.62V101.29H66.1904V100.59ZM76.0004 95.12L73.5004 89.12H73.2804L70.9304 95.12H76.0004Z" fill="#0078D7"/>
<path d="M60.39 73.97H56.21V78.15H60.39V73.97Z" fill="#0078D7"/>
<path d="M92.7103 73.97H88.5303V78.15H92.7103V73.97Z" fill="#0078D7"/>
<path d="M60.39 105.97H56.21V110.15H60.39V105.97Z" fill="#0078D7"/>
<path d="M92.7103 105.97H88.5303V110.15H92.7103V105.97Z" fill="#0078D7"/>
<path d="M20.7405 53.81C19.3539 53.8248 18.0147 53.3056 17.0005 52.36C16.455 51.84 16.0293 51.2075 15.753 50.5063C15.4767 49.8052 15.3564 49.0523 15.4005 48.3C15.3838 47.5792 15.5124 46.8624 15.7787 46.1923C16.045 45.5223 16.4435 44.9127 16.9505 44.4C17.4401 43.8881 18.0307 43.4834 18.6847 43.2114C19.3388 42.9394 20.0422 42.8062 20.7505 42.82C21.4497 42.8072 22.1439 42.9411 22.7881 43.2133C23.4323 43.4855 24.0122 43.8897 24.4905 44.4C24.9879 44.9177 25.3776 45.529 25.6368 46.1985C25.896 46.868 26.0196 47.5823 26.0005 48.3C26.0401 49.012 25.9334 49.7246 25.687 50.3939C25.4406 51.0631 25.0597 51.6747 24.5677 52.191C24.0758 52.7073 23.4833 53.1173 22.8268 53.3958C22.1702 53.6742 21.4636 53.8152 20.7505 53.81H20.7405Z" fill="#0078D7"/>
<path d="M4.25 15C4.29207 12.5411 5.01557 10.1421 6.34 8.06999C7.83574 5.64536 9.93836 3.65304 12.44 2.28999C15.3069 0.714207 18.5394 -0.0758067 21.81 -5.67688e-06C24.846 -0.0607088 27.8536 0.593578 30.59 1.90999C32.9946 3.07271 35.0325 4.8753 36.48 7.11999C37.8429 9.2585 38.5616 11.7441 38.55 14.28C38.5925 16.1259 38.1877 17.9546 37.37 19.61C36.6342 21.0611 35.6835 22.3928 34.55 23.56C33.47 24.6733 31.5233 26.54 28.71 29.16C28.0485 29.7723 27.424 30.4234 26.84 31.11C26.4343 31.583 26.0821 32.0995 25.79 32.65C25.5657 33.0972 25.3881 33.5664 25.26 34.05C25.13 34.51 24.94 35.33 24.69 36.5C24.2633 38.98 22.9033 40.22 20.61 40.22C20.0525 40.237 19.4977 40.1373 18.981 39.9272C18.4644 39.7171 17.9974 39.4013 17.61 39C17.1754 38.5105 16.8435 37.9388 16.6339 37.3187C16.4243 36.6986 16.3414 36.0427 16.39 35.39C16.3532 33.6126 16.6552 31.8444 17.28 30.18C17.8483 28.7697 18.6495 27.4649 19.65 26.32C20.9128 24.9337 22.248 23.6152 23.65 22.37C25.11 21.0367 26.1667 20.0367 26.82 19.37C27.4686 18.6902 28.0235 17.9268 28.47 17.1C28.9138 16.2623 29.1439 15.328 29.14 14.38C29.1628 13.4798 28.9966 12.5849 28.6521 11.7529C28.3076 10.921 27.7925 10.1705 27.14 9.54999C26.4383 8.88351 25.6109 8.36341 24.7061 8.02003C23.8013 7.67666 22.8372 7.51687 21.87 7.54999C19.35 7.54999 17.4967 8.21666 16.31 9.54999C14.9175 11.2724 13.8962 13.2641 13.31 15.4C12.54 18.09 11.06 19.4 8.89 19.4C8.26802 19.4227 7.64859 19.3092 7.0751 19.0673C6.50161 18.8255 5.98792 18.4612 5.57 18C4.76007 17.2073 4.28723 16.1327 4.25 15Z" fill="#0078D7"/>
</g>
<defs>
<clipPath id="clip0_400_679">
<rect width="178.76" height="270.42" fill="white"/>
</clipPath>
</defs>
</svg>
