<svg width="202" height="290" viewBox="0 0 202 290" fill="none" xmlns="http://www.w3.org/2000/svg">
<g clip-path="url(#clip0_400_723)">
<path d="M40.6597 143.93C40.2961 142.251 39.6175 140.656 38.6597 139.23L40.3397 137.23L36.7397 133.63L34.7397 135.32C33.3126 134.364 31.7181 133.685 30.0397 133.32L29.7897 130.7H24.7097L24.4597 133.32C22.7813 133.685 21.1868 134.364 19.7597 135.32L17.7597 133.63L14.1597 137.23L15.8397 139.23C14.8862 140.658 14.2079 142.252 13.8397 143.93L11.2197 144.18V149.27L13.8397 149.52C14.2097 151.197 14.8878 152.791 15.8397 154.22L14.1597 156.22L17.7597 159.82L19.7597 158.14C21.1866 159.096 22.7812 159.775 24.4597 160.14L24.7097 162.76H29.7997L30.0497 160.14C31.7283 159.775 33.3229 159.096 34.7497 158.14L36.7497 159.82L40.3497 156.22L38.6697 154.22C39.6258 152.793 40.3043 151.198 40.6697 149.52L43.2897 149.27V144.18L40.6597 143.93ZM34.1497 146.72C34.1517 148.086 33.7485 149.421 32.991 150.557C32.2336 151.693 31.1561 152.579 29.8949 153.103C28.6336 153.626 27.2455 153.764 25.9061 153.498C24.5667 153.232 23.3363 152.575 22.3707 151.609C21.4051 150.643 20.7477 149.413 20.4818 148.074C20.2159 146.734 20.3534 145.346 20.8769 144.085C21.4004 142.824 22.2863 141.746 23.4225 140.989C24.5588 140.231 25.8942 139.828 27.2597 139.83C29.0863 139.833 30.8372 140.559 32.1288 141.851C33.4203 143.142 34.1471 144.893 34.1497 146.72Z" fill="#EBEBEB"/>
<path d="M199.259 40.61C198.937 39.0335 198.316 37.5332 197.429 36.19L198.999 34.28L195.619 30.9L193.709 32.48C192.367 31.5996 190.871 30.9789 189.299 30.65L189.069 28.19H184.299L184.059 30.65C182.488 30.9789 180.992 31.5996 179.649 32.48L177.739 30.9L174.359 34.28L175.939 36.19C175.057 37.5354 174.436 39.0348 174.109 40.61L171.649 40.84V45.62L174.109 45.85C174.438 47.4215 175.059 48.9173 175.939 50.26L174.359 52.17L177.739 55.55L179.649 54C180.99 54.8844 182.487 55.5055 184.059 55.83L184.299 58.29H189.079L189.309 55.83C190.882 55.5055 192.379 54.8844 193.719 54L195.629 55.58L198.999 52.17L197.419 50.26C198.304 48.9195 198.925 47.4228 199.249 45.85L201.709 45.62V40.84L199.259 40.61ZM193.149 43.23C193.149 44.5101 192.77 45.7614 192.058 46.8256C191.347 47.8898 190.336 48.719 189.153 49.2085C187.97 49.6979 186.669 49.8254 185.413 49.5749C184.158 49.3245 183.005 48.7073 182.101 47.8014C181.196 46.8956 180.581 45.7418 180.333 44.4861C180.084 43.2304 180.214 41.9292 180.705 40.7471C181.196 39.565 182.027 38.5553 183.092 37.8455C184.157 37.1358 185.409 36.758 186.689 36.76C188.404 36.7626 190.047 37.4455 191.258 38.6586C192.469 39.8716 193.149 41.5158 193.149 43.23Z" fill="#EBEBEB"/>
<path d="M160.37 289.75C159.125 289.762 157.923 289.297 157.01 288.45C156.52 287.982 156.138 287.413 155.889 286.783C155.64 286.153 155.532 285.476 155.57 284.8C155.553 284.154 155.668 283.512 155.907 282.912C156.146 282.313 156.504 281.767 156.96 281.31C157.398 280.849 157.928 280.485 158.515 280.24C159.102 279.996 159.734 279.876 160.37 279.89C160.997 279.876 161.62 279.995 162.198 280.24C162.775 280.485 163.294 280.85 163.72 281.31C164.168 281.772 164.519 282.318 164.752 282.918C164.986 283.517 165.097 284.157 165.08 284.8C165.116 285.439 165.02 286.079 164.799 286.679C164.578 287.28 164.236 287.829 163.795 288.293C163.354 288.757 162.822 289.125 162.233 289.376C161.644 289.626 161.01 289.754 160.37 289.75Z" fill="#E6E6E6"/>
<path d="M145.569 254.88C145.616 252.688 146.263 250.55 147.439 248.7C148.785 246.524 150.674 244.736 152.919 243.51C155.499 242.117 158.399 241.427 161.329 241.51C164.055 241.453 166.756 242.042 169.209 243.23C171.37 244.265 173.198 245.882 174.489 247.9C175.714 249.816 176.36 252.046 176.349 254.32C176.388 255.979 176.024 257.622 175.289 259.11C174.628 260.41 173.779 261.607 172.769 262.66C171.769 263.66 170.039 265.33 167.519 267.66C166.929 268.213 166.368 268.798 165.839 269.41C165.478 269.835 165.163 270.298 164.899 270.79C164.705 271.196 164.544 271.617 164.419 272.05C164.309 272.46 164.139 273.2 163.919 274.25C163.529 276.47 162.299 277.59 160.249 277.59C159.75 277.601 159.253 277.508 158.79 277.319C158.327 277.13 157.909 276.848 157.559 276.49C157.17 276.051 156.873 275.537 156.685 274.981C156.498 274.424 156.425 273.836 156.469 273.25C156.429 271.656 156.701 270.07 157.269 268.58C157.77 267.309 158.487 266.135 159.389 265.11C160.516 263.865 161.708 262.68 162.959 261.56C164.269 260.36 165.219 259.46 165.809 258.85C166.39 258.252 166.888 257.58 167.289 256.85C167.689 256.099 167.895 255.261 167.889 254.41C167.905 253.599 167.751 252.793 167.436 252.045C167.12 251.298 166.652 250.625 166.059 250.07C165.428 249.476 164.684 249.014 163.872 248.71C163.06 248.406 162.196 248.267 161.329 248.3C160.416 248.222 159.497 248.341 158.634 248.65C157.771 248.959 156.985 249.45 156.329 250.09C155.073 251.634 154.15 253.422 153.619 255.34C152.953 257.76 151.619 258.97 149.619 258.97C149.072 258.977 148.529 258.868 148.027 258.649C147.526 258.43 147.076 258.106 146.709 257.7C145.973 256.947 145.563 255.933 145.569 254.88Z" fill="#E6E6E6"/>
<path d="M156.57 206.15H139.63C138.721 206.151 137.82 205.973 136.979 205.626C136.138 205.279 135.374 204.769 134.731 204.127C134.087 203.484 133.576 202.721 133.228 201.88C132.88 201.04 132.7 200.14 132.7 199.23C132.7 198.32 132.88 197.42 133.228 196.58C133.576 195.739 134.087 194.976 134.731 194.333C135.374 193.691 136.138 193.181 136.979 192.834C137.82 192.487 138.721 192.309 139.63 192.31H156.57C157.48 192.309 158.381 192.487 159.221 192.834C160.062 193.181 160.826 193.691 161.47 194.333C162.113 194.976 162.624 195.739 162.972 196.58C163.321 197.42 163.5 198.32 163.5 199.23C163.5 200.14 163.321 201.04 162.972 201.88C162.624 202.721 162.113 203.484 161.47 204.127C160.826 204.769 160.062 205.279 159.221 205.626C158.381 205.973 157.48 206.151 156.57 206.15Z" fill="#EBEBEB"/>
<path d="M156.29 206.43C160.266 206.43 163.49 203.206 163.49 199.23C163.49 195.254 160.266 192.03 156.29 192.03C152.313 192.03 149.09 195.254 149.09 199.23C149.09 203.206 152.313 206.43 156.29 206.43Z" fill="#E0E0E0"/>
<path d="M34.5201 38.3C33.6493 38.3079 32.8085 37.9823 32.1701 37.39C31.8302 37.0637 31.565 36.6677 31.3924 36.2293C31.2198 35.7909 31.1439 35.3204 31.1701 34.85C31.1655 34.3986 31.2517 33.9509 31.4235 33.5335C31.5953 33.1161 31.8491 32.7374 32.1701 32.42C32.476 32.0977 32.8454 31.8423 33.2551 31.6702C33.6648 31.4981 34.1058 31.4129 34.5501 31.42C34.987 31.4131 35.4204 31.4986 35.822 31.6709C36.2235 31.8432 36.5841 32.0985 36.8801 32.42C37.1911 32.7422 37.4352 33.1229 37.5982 33.5399C37.7613 33.957 37.8401 34.4023 37.8301 34.85C37.8546 35.2952 37.7879 35.7407 37.6339 36.1591C37.48 36.5775 37.2421 36.96 36.9349 37.2831C36.6277 37.6063 36.2577 37.8632 35.8476 38.038C35.4375 38.2129 34.9959 38.302 34.5501 38.3H34.5201Z" fill="#E6E6E6"/>
<path d="M24.21 14C24.2451 12.4707 24.6981 10.9802 25.52 9.68999C26.4566 8.17755 27.7693 6.93376 29.33 6.07999C31.1206 5.09796 33.1382 4.60476 35.18 4.64999C37.079 4.61172 38.9601 5.0229 40.67 5.84999C42.1704 6.57287 43.4409 7.69795 44.34 9.09999C45.1976 10.4324 45.6493 11.9855 45.64 13.57C45.6648 14.7234 45.4109 15.8657 44.9 16.9C44.4436 17.8088 43.85 18.6419 43.14 19.37C42.47 20.07 41.25 21.23 39.49 22.87C39.078 23.2551 38.6875 23.6623 38.32 24.09C38.0636 24.3958 37.8454 24.7316 37.67 25.09C37.5339 25.3694 37.4235 25.6606 37.34 25.96C37.26 26.2467 37.14 26.7567 36.98 27.49C36.9685 27.8114 36.893 28.1273 36.7581 28.4192C36.6231 28.7111 36.4313 28.9732 36.1939 29.1901C35.9565 29.407 35.6782 29.5745 35.3753 29.6826C35.0725 29.7908 34.7511 29.8375 34.43 29.82C34.0828 29.8284 33.7376 29.7653 33.4159 29.6346C33.0942 29.5038 32.8028 29.3082 32.56 29.06C32.2885 28.7533 32.0813 28.3953 31.9508 28.0071C31.8202 27.6189 31.7689 27.2084 31.8 26.8C31.7135 24.7232 32.4297 22.6929 33.8 21.13C34.42 20.44 35.25 19.62 36.29 18.66C37.33 17.7 37.86 17.2 38.29 16.78C38.6851 16.3534 39.0214 15.8758 39.29 15.36C39.5689 14.837 39.7133 14.2527 39.71 13.66C39.7193 13.0981 39.6102 12.5405 39.3896 12.0236C39.1691 11.5067 38.8421 11.0421 38.43 10.66C37.9983 10.2458 37.4888 9.92115 36.931 9.70488C36.3732 9.48862 35.778 9.385 35.18 9.39999C34.5464 9.34489 33.9084 9.42714 33.3096 9.64114C32.7107 9.85514 32.1651 10.1958 31.71 10.64C30.8376 11.7173 30.1975 12.9634 29.83 14.3C29.34 15.98 28.42 16.82 27.06 16.82C26.6832 16.8239 26.3099 16.7475 25.965 16.5957C25.6202 16.444 25.3116 16.2204 25.06 15.94C24.5308 15.4315 24.2251 14.7337 24.21 14Z" fill="#E6E6E6"/>
<path d="M44.4599 44.08C43.9165 41.5423 42.8987 39.13 41.4599 36.97L43.9999 33.9L38.5599 28.46L35.5399 31C33.3741 29.5829 30.9628 28.5824 28.4299 28.05L28.0599 24.05H20.3599L19.9899 28.05C17.4596 28.5807 15.0513 29.5813 12.8899 31L9.80992 28.46L4.36992 33.9L6.91992 37C5.48161 39.1602 4.4638 41.5724 3.91992 44.11L-0.0800781 44.48V52.18L3.91992 52.55C4.4638 55.0876 5.48161 57.4998 6.91992 59.66L4.36992 62.7L9.80992 68.14L12.8899 65.6C15.0454 67.0404 17.4547 68.0584 19.9899 68.6L20.3599 72.6H28.0599L28.4299 68.6C30.9677 68.0566 33.3799 67.0387 35.5399 65.6L38.6099 68.14L44.0499 62.7L41.5099 59.63C42.9487 57.47 43.9665 55.0578 44.5099 52.52L48.5099 52.15V44.45L44.4599 44.08ZM34.6299 48.3C34.6319 50.3613 34.0225 52.3769 32.8787 54.0918C31.7349 55.8066 30.1082 57.1438 28.2044 57.934C26.3006 58.7242 24.2052 58.9319 22.1832 58.531C20.1613 58.1301 18.3037 57.1385 16.8454 55.6816C15.3871 54.2247 14.3937 52.3681 13.9909 50.3465C13.588 48.325 13.7938 46.2293 14.5821 44.3248C15.3705 42.4202 16.7061 40.7922 18.4198 39.6468C20.1336 38.5014 22.1486 37.89 24.2099 37.89C26.9709 37.8926 29.6183 38.9899 31.5715 40.9413C33.5248 42.8927 34.6246 45.539 34.6299 48.3Z" fill="#0078D7"/>
<path opacity="0.6" d="M44.4599 44.08C43.9165 41.5423 42.8987 39.13 41.4599 36.97L43.9999 33.9L38.5599 28.46L35.5399 31C33.3741 29.5829 30.9628 28.5824 28.4299 28.05L28.0599 24.05H20.3599L19.9899 28.05C17.4596 28.5807 15.0513 29.5813 12.8899 31L9.80992 28.46L4.36992 33.9L6.91992 37C5.48161 39.1602 4.4638 41.5724 3.91992 44.11L-0.0800781 44.48V52.18L3.91992 52.55C4.4638 55.0876 5.48161 57.4998 6.91992 59.66L4.36992 62.7L9.80992 68.14L12.8899 65.6C15.0454 67.0404 17.4547 68.0584 19.9899 68.6L20.3599 72.6H28.0599L28.4299 68.6C30.9677 68.0566 33.3799 67.0387 35.5399 65.6L38.6099 68.14L44.0499 62.7L41.5099 59.63C42.9487 57.47 43.9665 55.0578 44.5099 52.52L48.5099 52.15V44.45L44.4599 44.08ZM34.6299 48.3C34.6319 50.3613 34.0225 52.3769 32.8787 54.0918C31.7349 55.8066 30.1082 57.1438 28.2044 57.934C26.3006 58.7242 24.2052 58.9319 22.1832 58.531C20.1613 58.1301 18.3037 57.1385 16.8454 55.6816C15.3871 54.2247 14.3937 52.3681 13.9909 50.3465C13.588 48.325 13.7938 46.2293 14.5821 44.3248C15.3705 42.4202 16.7061 40.7922 18.4198 39.6468C20.1336 38.5014 22.1486 37.89 24.2099 37.89C26.9709 37.8926 29.6183 38.9899 31.5715 40.9413C33.5248 42.8927 34.6246 45.539 34.6299 48.3Z" fill="#0078D7"/>
<path d="M70.1002 183.14C69.7427 181.419 69.0642 179.78 68.1002 178.31L69.8202 176.22L66.1302 172.53L64.0002 174.26C62.5351 173.293 60.8993 172.615 59.1802 172.26L59.0002 169.56H53.7402L53.4802 172.25C51.7611 172.605 50.1252 173.283 48.6602 174.25L46.5702 172.52L42.8702 176.21L44.6002 178.3C43.6329 179.768 42.9542 181.408 42.6002 183.13L39.9102 183.38V188.6L42.6002 188.86C42.9542 190.579 43.633 192.215 44.6002 193.68L42.8702 195.77L46.5702 199.47L48.6602 197.74C50.1273 198.703 51.7623 199.381 53.4802 199.74L53.7402 202.43H59.0002L59.2602 199.74C60.978 199.381 62.613 198.703 64.0802 197.74L66.1702 199.47L69.8602 195.77L68.1402 193.68C69.103 192.213 69.7815 190.578 70.1402 188.86L72.8302 188.6V183.38L70.1002 183.14ZM63.4202 186C63.4202 187.398 63.0055 188.765 62.2286 189.928C61.4518 191.091 60.3476 191.997 59.0557 192.532C57.7639 193.067 56.3423 193.207 54.9709 192.934C53.5994 192.661 52.3397 191.988 51.3509 190.999C50.3622 190.01 49.6888 188.751 49.416 187.379C49.1432 186.008 49.2832 184.586 49.8183 183.294C50.3534 182.003 51.2596 180.898 52.4223 180.122C53.5849 179.345 54.9518 178.93 56.3502 178.93C57.2786 178.93 58.198 179.113 59.0557 179.468C59.9135 179.823 60.6929 180.344 61.3494 181.001C62.0059 181.657 62.5267 182.437 62.882 183.294C63.2373 184.152 63.4202 185.072 63.4202 186Z" fill="#0078D7"/>
<path opacity="0.6" d="M70.1002 183.14C69.7427 181.419 69.0642 179.78 68.1002 178.31L69.8202 176.22L66.1302 172.53L64.0002 174.26C62.5351 173.293 60.8993 172.615 59.1802 172.26L59.0002 169.56H53.7402L53.4802 172.25C51.7611 172.605 50.1252 173.283 48.6602 174.25L46.5702 172.52L42.8702 176.21L44.6002 178.3C43.6329 179.768 42.9542 181.408 42.6002 183.13L39.9102 183.38V188.6L42.6002 188.86C42.9542 190.579 43.633 192.215 44.6002 193.68L42.8702 195.77L46.5702 199.47L48.6602 197.74C50.1273 198.703 51.7623 199.381 53.4802 199.74L53.7402 202.43H59.0002L59.2602 199.74C60.978 199.381 62.613 198.703 64.0802 197.74L66.1702 199.47L69.8602 195.77L68.1402 193.68C69.103 192.213 69.7815 190.578 70.1402 188.86L72.8302 188.6V183.38L70.1002 183.14ZM63.4202 186C63.4202 187.398 63.0055 188.765 62.2286 189.928C61.4518 191.091 60.3476 191.997 59.0557 192.532C57.7639 193.067 56.3423 193.207 54.9709 192.934C53.5994 192.661 52.3397 191.988 51.3509 190.999C50.3622 190.01 49.6888 188.751 49.416 187.379C49.1432 186.008 49.2832 184.586 49.8183 183.294C50.3534 182.003 51.2596 180.898 52.4223 180.122C53.5849 179.345 54.9518 178.93 56.3502 178.93C57.2786 178.93 58.198 179.113 59.0557 179.468C59.9135 179.823 60.6929 180.344 61.3494 181.001C62.0059 181.657 62.5267 182.437 62.882 183.294C63.2373 184.152 63.4202 185.072 63.4202 186Z" fill="#0078D7"/>
<path d="M104.919 230.37C103.179 222.92 106.919 215.67 113.369 214.17C119.819 212.67 126.369 217.49 128.129 224.94C129.889 232.39 126.129 239.63 119.679 241.13C113.229 242.63 106.659 237.81 104.919 230.37Z" fill="#0078D7"/>
<path opacity="0.4" d="M104.919 230.37C103.179 222.92 106.919 215.67 113.369 214.17C119.819 212.67 126.369 217.49 128.129 224.94C129.889 232.39 126.129 239.63 119.679 241.13C113.229 242.63 106.659 237.81 104.919 230.37Z" fill="black"/>
<path d="M57.1797 26.36L62.4197 0L80.3697 20.93L127.86 224L104.67 229.42L57.1797 26.36Z" fill="#0078D7"/>
<path d="M67.1697 5.52C66.5136 6.49473 65.5155 7.18768 64.3729 7.46175C63.2304 7.73581 62.0266 7.57103 60.9997 7L57.1797 26.36C57.1797 26.36 60.3997 31.11 62.9897 25.36C62.9897 25.36 67.0497 29.49 69.5997 23.81C69.5997 23.81 73.3397 26.98 75.3697 22.46C75.3697 22.46 78.5597 24.93 80.3697 20.92L67.1697 5.52Z" fill="#B97964"/>
<path opacity="0.3" d="M69.6895 23.83L118.489 226.48L123.889 225.22C124.689 224.77 75.4594 22.48 75.4594 22.48C73.4194 27 69.6895 23.83 69.6895 23.83Z" fill="white"/>
<path opacity="0.3" d="M62.9996 25.44C61.5996 28.6 59.9996 28.58 58.8096 27.92L107.27 229.15L112.67 227.89C113.43 227.46 68.8396 44.06 64.5696 26.5C63.9924 26.2338 63.4622 25.8759 62.9996 25.44Z" fill="white"/>
<path d="M104.677 232.087L129.244 226.343L128.318 222.38L103.75 228.124L104.677 232.087Z" fill="#263238"/>
<path d="M167.09 15.87H98.3203V84.64H167.09V15.87Z" stroke="#263238" stroke-width="0.5" stroke-miterlimit="10"/>
<path d="M163.6 19.12H101.62V81.1H163.6V19.12Z" stroke="#263238" stroke-width="0.5" stroke-miterlimit="10"/>
<path d="M101.62 80.84L163.6 18.86" stroke="#263238" stroke-width="0.5" stroke-miterlimit="10"/>
<path d="M163.6 80.84L101.62 18.86" stroke="#263238" stroke-width="0.5" stroke-miterlimit="10"/>
<path d="M161.48 68.96H51.7299C41.8937 68.96 33.9199 76.9338 33.9199 86.77V145.53C33.9199 155.366 41.8937 163.34 51.7299 163.34H161.48C171.316 163.34 179.29 155.366 179.29 145.53V86.77C179.29 76.9338 171.316 68.96 161.48 68.96Z" fill="#0078D7"/>
<path d="M55.6396 120.05V93.12H72.1497V119.56C72.1497 127.05 75.0196 129.85 79.6296 129.85C84.2396 129.85 87.1197 127.05 87.1197 119.56V93.12H103.34V120.05C103.34 134.74 94.5296 143.21 79.4896 143.21C64.4496 143.21 55.6396 134.74 55.6396 120.05Z" fill="white"/>
<path d="M141.18 142.09L132.72 129L124.46 142.08H105.65L123.34 117.39L106.28 93.12H124.81L133.14 105.43L141.25 93.12H159L142 116.77L160 142.09H141.18Z" fill="white"/>
<path d="M157.58 173.07H137.52C133.698 173.07 130.6 176.168 130.6 179.99V180C130.6 183.822 133.698 186.92 137.52 186.92H157.58C161.401 186.92 164.5 183.822 164.5 180V179.99C164.5 176.168 161.401 173.07 157.58 173.07Z" fill="#0078D7"/>
<path d="M145 180C145.002 181.427 144.581 182.822 143.789 184.009C142.998 185.197 141.872 186.122 140.554 186.669C139.236 187.216 137.785 187.36 136.386 187.082C134.986 186.804 133.701 186.117 132.692 185.108C131.683 184.099 130.996 182.814 130.718 181.414C130.44 180.015 130.584 178.564 131.131 177.246C131.678 175.928 132.603 174.802 133.791 174.011C134.978 173.219 136.373 172.798 137.8 172.8C139.71 172.8 141.541 173.559 142.891 174.909C144.242 176.259 145 178.09 145 180Z" fill="#263238"/>
</g>
<defs>
<clipPath id="clip0_400_723">
<rect width="201.72" height="289.75" fill="white"/>
</clipPath>
</defs>
</svg>
